<svg width="25" height="20" viewBox="0 0 25 20" fill="none" xmlns="http://www.w3.org/2000/svg">
<path d="M11.8089 0.240691L6.51778 6.07971H1.44773C0.358372 6.07971 0 6.7292 0 7.34777V12.351C0 12.9695 0.358372 13.7496 1.44773 13.7496H6.54262L11.8325 19.6801C12.0629 19.8116 12.3201 19.8838 12.5775 19.8838C12.8346 19.8838 13.0458 19.8208 13.2759 19.689C13.7371 19.4258 13.9747 18.9427 13.9747 18.4157V1.43913C13.9747 0.912396 13.7371 0.425894 13.2759 0.162679C12.8148 -0.100536 12.2704 -0.0225237 11.8089 0.240691Z" fill="black"/>
<path d="M18.409 14.3537C20.7454 11.9809 20.7454 8.12196 18.4092 5.74938C18.0288 5.36348 17.411 5.36349 17.0311 5.74941C16.653 6.13301 16.653 6.75387 17.0311 7.13794C18.6118 8.74379 18.6118 11.3591 17.0311 12.9653C16.653 13.3489 16.653 13.9698 17.0312 14.3535C17.2145 14.5398 17.4614 14.643 17.7201 14.643C17.9784 14.643 18.2254 14.5397 18.409 14.3537Z" fill="black"/>
<path d="M24.0633 10.0506C24.0633 7.746 23.1781 5.57674 21.5715 3.94499C21.1917 3.55867 20.5735 3.55869 20.1936 3.94512C19.8156 4.32865 19.8157 4.9496 20.1938 5.33331C21.4353 6.59445 22.1185 8.26884 22.1185 10.0506C22.1185 11.8319 21.4349 13.5072 20.1937 14.7677C19.8157 15.1513 19.8157 15.7722 20.1937 16.1562C20.3775 16.3425 20.6245 16.4458 20.8828 16.4458C21.1415 16.4458 21.3888 16.3423 21.5717 16.156C23.1781 14.5241 24.0633 12.3549 24.0633 10.0506Z" fill="black"/>
</svg>
