<svg width="26" height="20" viewBox="0 0 26 20" fill="none" xmlns="http://www.w3.org/2000/svg">
<path d="M11.8089 0.240691L6.51778 6.07971H1.44773C0.358372 6.07971 0 6.7292 0 7.34777V12.351C0 12.9695 0.358372 13.7496 1.44773 13.7496H6.54262L11.8325 19.6801C12.0629 19.8116 12.3201 19.8838 12.5775 19.8838C12.8346 19.8838 13.0458 19.8208 13.2759 19.689C13.7371 19.4258 13.9747 18.9427 13.9747 18.4157V1.43913C13.9747 0.912396 13.7371 0.425894 13.2759 0.162679C12.8148 -0.100536 12.2704 -0.0225237 11.8089 0.240691Z" fill="black"/>
<path d="M24.917 7.464C25.2535 7.12877 25.2535 6.58608 24.917 6.25118C24.5803 5.91627 24.0351 5.91627 23.6987 6.25118L21.0845 8.52337L18.4709 6.25118C18.1345 5.91627 17.589 5.91627 17.2526 6.25118C16.9158 6.58608 16.9158 7.12877 17.2526 7.464L19.5357 10.0658L17.2526 12.6667C16.9158 13.0019 16.9158 13.5446 17.2526 13.8798C17.4209 14.0471 17.6413 14.1311 17.8619 14.1311C18.0822 14.1311 18.3029 14.0471 18.4709 13.8798L21.0845 11.6076L23.6987 13.8798C23.8668 14.0471 24.0871 14.1311 24.3077 14.1311C24.528 14.1311 24.7487 14.0471 24.917 13.8798C25.2535 13.5446 25.2535 13.0019 24.917 12.6667L22.6339 10.0658L24.917 7.464Z" fill="black"/>
</svg>
